<?xml version="1.0" encoding="utf-8"?>
<!-- Generator: Adobe Illustrator 19.0.0, SVG Export Plug-In . SVG Version: 6.00 Build 0)  -->
<svg version="1.1" id="Camada_1" xmlns="http://www.w3.org/2000/svg" xmlns:xlink="http://www.w3.org/1999/xlink" x="0px" y="0px"
	 viewBox="0 0 93.6 83.4" style="enable-background:new 0 0 93.6 83.4;" xml:space="preserve">
<style type="text/css">
	.st0{fill:#010202;}
</style>
<g id="XMLID_12_">
	<path id="XMLID_13_" class="st0" d="M86,83.4H7.7c-2.8,0-5.3-1.4-6.6-3.8c-1.4-2.4-1.3-5.2,0-7.5L40.2,5.2c1.4-2.4,3.9-3.8,6.6-3.8
		c2.8,0,5.2,1.4,6.6,3.8L92.6,72c1.4,2.4,1.4,5.2,0,7.5C91.2,81.9,88.8,83.4,86,83.4z M6.1,75c-0.4,0.7-0.2,1.4,0,1.7
		c0.2,0.3,0.6,0.9,1.6,0.9H86c1,0,1.4-0.6,1.6-0.9c0.2-0.3,0.4-0.9,0-1.7L48.4,8.2c-0.5-0.8-1.2-0.9-1.6-0.9c-0.3,0-1.1,0.1-1.6,0.9
		L6.1,75z"/>
</g>
<path id="XMLID_11_" class="st0" d="M42.5,60c-1.6,0-2.9-1.3-2.9-2.9V33.7c0-1.6,1.3-2.9,2.9-2.9c1.6,0,2.9,1.3,2.9,2.9v23.4
	C45.5,58.7,44.2,60,42.5,60z"/>
<path id="XMLID_10_" class="st0" d="M42.5,71.7c-0.8,0-1.5-0.3-2.1-0.8c-0.5-0.6-0.8-1.3-0.8-2.1s0.3-1.5,0.8-2.1
	c1.1-1.1,3.1-1.1,4.2,0c0.5,0.6,0.8,1.3,0.8,2.1s-0.3,1.5-0.8,2.1C44.1,71.4,43.3,71.7,42.5,71.7z"/>
<path id="XMLID_9_" class="st0" d="M50.6,60c-1.6,0-2.9-1.3-2.9-2.9V33.7c0-1.6,1.3-2.9,2.9-2.9c1.6,0,2.9,1.3,2.9,2.9v23.4
	C53.5,58.7,52.2,60,50.6,60z"/>
<path id="XMLID_8_" class="st0" d="M50.6,71.7c-0.8,0-1.5-0.3-2.1-0.8c-0.5-0.6-0.8-1.3-0.8-2.1c0-0.8,0.3-1.5,0.8-2.1
	c1.1-1.1,3.1-1.1,4.2,0c0.5,0.6,0.8,1.3,0.8,2.1c0,0.8-0.3,1.5-0.8,2.1C52.1,71.4,51.4,71.7,50.6,71.7z"/>
<g id="XMLID_75_">
</g>
<g id="XMLID_76_">
</g>
<g id="XMLID_77_">
</g>
<g id="XMLID_78_">
</g>
<g id="XMLID_79_">
</g>
<g id="XMLID_80_">
</g>
<g id="XMLID_81_">
</g>
<g id="XMLID_82_">
</g>
<g id="XMLID_83_">
</g>
<g id="XMLID_84_">
</g>
<g id="XMLID_85_">
</g>
<g id="XMLID_86_">
</g>
<g id="XMLID_87_">
</g>
<g id="XMLID_88_">
</g>
<g id="XMLID_89_">
</g>
</svg>
