<?xml version="1.0" encoding="utf-8"?>
<!-- Generator: Adobe Illustrator 19.0.0, SVG Export Plug-In . SVG Version: 6.00 Build 0)  -->
<svg version="1.1" id="Camada_1" xmlns="http://www.w3.org/2000/svg" xmlns:xlink="http://www.w3.org/1999/xlink" x="0px" y="0px"
	 viewBox="0 0 122 105.7" style="enable-background:new 0 0 122 105.7;" xml:space="preserve">
<style type="text/css">
	.st0{fill:none;stroke:#010202;stroke-width:3;stroke-linecap:round;stroke-miterlimit:10;}
	.st1{fill:none;stroke:#010202;stroke-width:3;stroke-miterlimit:10;}
</style>
<path id="XMLID_160_" class="st0" d="M17.7,61h31.1c0.1,0,0.1,0,0.1-0.1l3.8-12c0.1-0.2,0.4-0.2,0.4,0l9.4,23.7
	c0.1,0.2,0.4,0.2,0.5,0L78,33.1c0.1-0.2,0.4-0.2,0.5,0l4.9,19.2"/>
<path id="XMLID_159_" class="st1" d="M114.1,15.3c-3.2-4.1-7.5-7.4-12.3-9.5c-16.1-7-31.6-1.6-40.3,9.4c-8.7-11-24.2-16.4-40.3-9.4
	c-4.8,2.1-9.1,5.3-12.3,9.5c-16.8,21.8,5.9,46,15.3,54.6c4.8,4.4,36.7,33,37.3,32.9c0.6,0,32.5-28.5,37.3-32.9
	C108.1,61.3,130.9,37.1,114.1,15.3z"/>
<g id="XMLID_263_">
</g>
<g id="XMLID_264_">
</g>
<g id="XMLID_265_">
</g>
<g id="XMLID_266_">
</g>
<g id="XMLID_267_">
</g>
<g id="XMLID_268_">
</g>
<g id="XMLID_269_">
</g>
<g id="XMLID_270_">
</g>
<g id="XMLID_271_">
</g>
<g id="XMLID_272_">
</g>
<g id="XMLID_273_">
</g>
<g id="XMLID_274_">
</g>
<g id="XMLID_275_">
</g>
<g id="XMLID_276_">
</g>
<g id="XMLID_277_">
</g>
</svg>
