<?xml version="1.0" encoding="utf-8"?>
<!-- Generator: Adobe Illustrator 19.0.0, SVG Export Plug-In . SVG Version: 6.00 Build 0)  -->
<svg version="1.1" id="Camada_1" xmlns="http://www.w3.org/2000/svg" xmlns:xlink="http://www.w3.org/1999/xlink" x="0px" y="0px"
	 viewBox="0 0 122 105.7" style="enable-background:new 0 0 122 105.7;" xml:space="preserve">
<style type="text/css">
	.st0{fill:none;stroke:#010202;stroke-width:2;stroke-linecap:round;stroke-miterlimit:10;}
	.st1{fill:#FFFFFF;stroke:#010202;stroke-width:2;stroke-linecap:round;stroke-miterlimit:10;}
</style>
<g id="XMLID_350_">
	<path id="XMLID_358_" class="st0" d="M101.8,47.3l9.3,0.6"/>
	<path id="XMLID_357_" class="st0" d="M51.4,48.6L42.1,48"/>
	<path id="XMLID_356_" class="st0" d="M94.6,65.6l6.7,6.5"/>
	<path id="XMLID_355_" class="st0" d="M58.5,30.3l-6.6-6.5"/>
	<path id="XMLID_354_" class="st0" d="M76.6,22.8l0-9.3"/>
	<path id="XMLID_353_" class="st0" d="M94.1,29.8l6.6-6.5"/>
	<path id="XMLID_351_" class="st0" d="M89.3,36c6.4,6.9,6.3,17.8-0.4,24.2c-7.2,7.1-18.8,6.7-25.5-0.8c-6.1-7.2-5.5-18,1.5-24.4
		S82.9,29.3,89.3,36z"/>
</g>
<path id="XMLID_335_" class="st1" d="M89.5,76.2c0,0,0.4-6.3-5.3-9.6c-6.2-3.5-12.8,0.1-12.8,0.1s-2.5-14.3-16.2-14.3
	c-6.3,0-11.8,3.6-14.5,8.9c-1.6-0.7-3.3-1-5-1c-6.3,0-11.5,4.4-12.7,10.3c-2.3-0.8-4.9-0.9-7.9,1.7c-1.7,1.4-2.9,3.5-2.9,5.8
	c-0.1,3.1,1.6,5.1,4,6.5c1,0.7,2.1,0.5,3.4,0.5l73.9,0c2.5,0,4.2-1.9,4.2-4.4C97.6,76.6,92.6,76.2,89.5,76.2z"/>
<g id="XMLID_2_">
</g>
<g id="XMLID_3_">
</g>
<g id="XMLID_4_">
</g>
<g id="XMLID_5_">
</g>
<g id="XMLID_6_">
</g>
<g id="XMLID_7_">
</g>
<g id="XMLID_8_">
</g>
<g id="XMLID_9_">
</g>
<g id="XMLID_10_">
</g>
<g id="XMLID_11_">
</g>
<g id="XMLID_12_">
</g>
<g id="XMLID_13_">
</g>
<g id="XMLID_14_">
</g>
<g id="XMLID_15_">
</g>
<g id="XMLID_16_">
</g>
</svg>
