<?xml version="1.0" encoding="utf-8"?>
<!-- Generator: Adobe Illustrator 19.0.0, SVG Export Plug-In . SVG Version: 6.00 Build 0)  -->
<svg version="1.1" id="Camada_1" xmlns="http://www.w3.org/2000/svg" xmlns:xlink="http://www.w3.org/1999/xlink" x="0px" y="0px"
	 viewBox="0 0 122 105.7" style="enable-background:new 0 0 122 105.7;" xml:space="preserve">
<style type="text/css">
	.st0{fill:none;stroke:#010202;stroke-width:2;stroke-linecap:round;stroke-miterlimit:10;}
	.st1{fill:#FFFFFF;stroke:#010202;stroke-width:2;stroke-linecap:round;stroke-miterlimit:10;}
</style>
<path id="XMLID_365_" class="st0" d="M29.3,80.9l-6.8,8.6"/>
<path id="XMLID_364_" class="st0" d="M30.5,95.8l-5.7,7.2"/>
<path id="XMLID_363_" class="st0" d="M49.7,81.2l-6.8,8.6"/>
<path id="XMLID_362_" class="st0" d="M87.9,81.2L81,89.8"/>
<path id="XMLID_361_" class="st0" d="M69.4,80.9l-6.8,8.6"/>
<path id="XMLID_360_" class="st0" d="M49.2,96.5l-5.7,7.2"/>
<path id="XMLID_359_" class="st0" d="M68.9,96.5l-5.7,7.2"/>
<g id="XMLID_350_">
	<path id="XMLID_358_" class="st0" d="M102.8,39.3l9.3,0.6"/>
	<path id="XMLID_357_" class="st0" d="M52.4,40.6L43.1,40"/>
	<path id="XMLID_356_" class="st0" d="M95.6,57.6l6.7,6.5"/>
	<path id="XMLID_355_" class="st0" d="M59.5,22.3l-6.6-6.5"/>
	<path id="XMLID_354_" class="st0" d="M77.6,14.8l0-9.3"/>
	<path id="XMLID_353_" class="st0" d="M95.1,21.8l6.6-6.5"/>
	<path id="XMLID_351_" class="st0" d="M90.3,28c6.4,6.9,6.3,17.8-0.4,24.2c-7.2,7.1-18.8,6.7-25.5-0.8c-6.1-7.2-5.5-18,1.5-24.4
		S83.9,21.3,90.3,28z"/>
</g>
<path id="XMLID_335_" class="st1" d="M90.5,68.2c0,0,0.4-6.3-5.3-9.6c-6.2-3.5-12.8,0.1-12.8,0.1s-2.5-14.3-16.2-14.3
	c-6.3,0-11.8,3.6-14.5,8.9c-1.6-0.7-3.3-1-5-1c-6.3,0-11.5,4.4-12.7,10.3c-2.3-0.8-4.9-0.9-7.9,1.7c-1.7,1.4-2.9,3.5-2.9,5.8
	c-0.1,3.1,1.6,5.1,4,6.5c1,0.7,2.1,0.5,3.4,0.5l73.9,0c2.5,0,4.2-1.9,4.2-4.4C98.6,68.6,93.6,68.2,90.5,68.2z"/>
<g id="XMLID_159_">
</g>
<g id="XMLID_160_">
</g>
<g id="XMLID_263_">
</g>
<g id="XMLID_264_">
</g>
<g id="XMLID_265_">
</g>
<g id="XMLID_266_">
</g>
<g id="XMLID_267_">
</g>
<g id="XMLID_268_">
</g>
<g id="XMLID_269_">
</g>
<g id="XMLID_270_">
</g>
<g id="XMLID_271_">
</g>
<g id="XMLID_272_">
</g>
<g id="XMLID_273_">
</g>
<g id="XMLID_274_">
</g>
<g id="XMLID_275_">
</g>
</svg>
