<?xml version="1.0" encoding="utf-8"?>
<!-- Generator: Adobe Illustrator 19.0.0, SVG Export Plug-In . SVG Version: 6.00 Build 0)  -->
<svg version="1.1" id="Camada_1" xmlns="http://www.w3.org/2000/svg" xmlns:xlink="http://www.w3.org/1999/xlink" x="0px" y="0px"
	 viewBox="-339 141 280.5 279" style="enable-background:new -339 141 280.5 279;" xml:space="preserve">
<style type="text/css">
	.st0{fill:none;stroke:#010202;stroke-width:9;stroke-linecap:round;stroke-miterlimit:10;}
	.st1{fill:none;stroke:#000000;stroke-width:10;stroke-linecap:round;stroke-miterlimit:10;}
</style>
<g id="XMLID_106_">
</g>
<g id="XMLID_107_">
</g>
<g id="XMLID_108_">
</g>
<g id="XMLID_109_">
</g>
<g id="XMLID_110_">
</g>
<g id="XMLID_111_">
</g>
<g id="XMLID_112_">
</g>
<g id="XMLID_113_">
</g>
<g id="XMLID_114_">
</g>
<g id="XMLID_115_">
</g>
<g id="XMLID_116_">
</g>
<g id="XMLID_117_">
</g>
<g id="XMLID_118_">
</g>
<g id="XMLID_119_">
</g>
<g id="XMLID_120_">
</g>
<g>
	<g id="XMLID_1_">
		<path id="XMLID_2_" class="st0" d="M-161.7,261.7c-8.4-16.3-14.6-27.2-17.5-32.1c-1.2-2.1-2.4-4.2-3.5-6.4l-37.8-73.4
			c-1.6-2.9-5.8-2.9-7.4,0l-39.5,76.9c0,0-37,66-40.3,78.6l-1.3,5.6c-0.9,5.3-1.6,10.5-1.6,16.1c0,47.7,38.6,86.3,86.3,86.3
			c45.9,0,85.3-20.8,88-66"/>
	</g>
	<path class="st1" d="M-283.8,305.8c0,0-6.2,74.1,55.8,79.6"/>
	<path class="st0" d="M-217.5,271.9c13.5-4.8,30.1-4.5,43.9,0.8c6.6,2.5,19.1,6.8,26.1,8.3c6.6,1.5,26.2,2.2,38.3-10.8"/>
	<path class="st0" d="M-117.8,335.8c6.1-1.8,13.2-5.4,17.5-10.1"/>
	<path class="st0" d="M-191,325.5c24.7-8.7,48,13.6,73.1,10.3"/>
	<path class="st0" d="M-80.5,285.7c-8.6,10.3-20.3,17.8-33.2,21.3s-25.9,3.3-38.5-1.2c0,0-9.9-4-18.2-3.8"/>
	<path class="st0" d="M-218.9,307.9c7.6-4,16.1-6.2,24.6-6.5"/>
</g>
</svg>
