<?xml version="1.0" encoding="utf-8"?>
<!-- Generator: Adobe Illustrator 19.0.0, SVG Export Plug-In . SVG Version: 6.00 Build 0)  -->
<svg version="1.1" id="Camada_1" xmlns="http://www.w3.org/2000/svg" xmlns:xlink="http://www.w3.org/1999/xlink" x="0px" y="0px"
	 viewBox="0 0 264.7 157.3" style="enable-background:new 0 0 264.7 157.3;" xml:space="preserve">
<style type="text/css">
	.st0{fill:none;}
	.st1{fill:#010202;}
</style>
<g id="XMLID_154_">
	<rect id="XMLID_164_" x="-6.1" y="3.6" class="st0" width="342.5" height="210.6"/>
	<path id="XMLID_160_" class="st1" d="M66.6,142c6.8,0,12.9-1.2,18.3-3.6c5.4-2.4,9.9-5.6,13.6-9.8c3.7-4.2,6.6-9.2,8.5-14.8
		c2-5.7,3-11.9,3-18.5V7.8h10.2v87.5c0,7.8-1.2,15.1-3.7,21.8c-2.5,6.8-6,12.7-10.7,17.7c-4.6,5-10.3,9-16.9,11.8
		c-6.6,2.9-14.1,4.3-22.3,4.3c-8.3,0-15.7-1.4-22.4-4.3c-6.6-2.9-12.3-6.8-16.9-11.8c-4.6-5-8.2-10.9-10.7-17.7
		c-2.5-6.8-3.7-14-3.7-21.8V7.8h10.3v87.4c0,6.6,1,12.8,3,18.5c2,5.7,4.8,10.7,8.5,14.9c3.7,4.2,8.2,7.5,13.6,9.9
		C53.7,140.8,59.8,142,66.6,142z"/>
	<path id="XMLID_162_" class="st1" d="M260.6,7.8l-58.4,141.5h-9.1L134.7,7.8h8.1c0.9,0,1.7,0.2,2.3,0.7c0.6,0.5,1.1,1.1,1.4,2
		l48.2,117.4c0.5,1.5,1.1,3,1.6,4.7c0.5,1.7,1,3.4,1.5,5.1c0.4-1.7,0.8-3.4,1.3-5.1c0.5-1.7,1-3.2,1.6-4.7l48.1-117.4
		c0.3-0.7,0.7-1.4,1.4-1.9c0.7-0.5,1.5-0.8,2.4-0.8H260.6z"/>
</g>
<g id="XMLID_1_">
</g>
<g id="XMLID_159_">
</g>
<g id="XMLID_165_">
</g>
<g id="XMLID_166_">
</g>
<g id="XMLID_167_">
</g>
<g id="XMLID_168_">
</g>
<g id="XMLID_169_">
</g>
<g id="XMLID_170_">
</g>
<g id="XMLID_171_">
</g>
<g id="XMLID_172_">
</g>
<g id="XMLID_173_">
</g>
<g id="XMLID_174_">
</g>
<g id="XMLID_175_">
</g>
<g id="XMLID_176_">
</g>
<g id="XMLID_177_">
</g>
</svg>
