<?xml version="1.0" encoding="utf-8"?>
<!-- Generator: Adobe Illustrator 19.0.0, SVG Export Plug-In . SVG Version: 6.00 Build 0)  -->
<svg version="1.1" id="Camada_1" xmlns="http://www.w3.org/2000/svg" xmlns:xlink="http://www.w3.org/1999/xlink" x="0px" y="0px"
	 viewBox="-166 -5.5 625.5 571.5" style="enable-background:new -166 -5.5 625.5 571.5;" xml:space="preserve">
<style type="text/css">
	.st0{fill:none;stroke:#010202;stroke-width:12;stroke-linecap:round;stroke-miterlimit:10;}
	.st1{fill:#010202;stroke:#010202;stroke-width:3;stroke-miterlimit:10;}
	.st2{fill:none;stroke:#010202;stroke-width:8;stroke-miterlimit:10;}
</style>
<g id="XMLID_1_">
</g>
<g id="XMLID_159_">
</g>
<g id="XMLID_165_">
</g>
<g id="XMLID_166_">
</g>
<g id="XMLID_167_">
</g>
<g id="XMLID_168_">
</g>
<g id="XMLID_169_">
</g>
<g id="XMLID_170_">
</g>
<g id="XMLID_171_">
</g>
<g id="XMLID_172_">
</g>
<g id="XMLID_173_">
</g>
<g id="XMLID_174_">
</g>
<g id="XMLID_175_">
</g>
<g id="XMLID_176_">
</g>
<g id="XMLID_177_">
</g>
<g id="XMLID_72_">
	<path id="XMLID_73_" class="st0" d="M240.9,176.4c52.8,57.7,51.4,146.7-3.5,200.2c-59.8,59.1-155.7,55.6-209.9-6.3
		c-50.7-59.2-45.2-148.8,11.8-201.7S188.1,121.5,240.9,176.4z"/>
</g>
<g id="XMLID_68_">
	<path id="XMLID_70_" class="st1" d="M91.2,323.3c4.7,0,8.8-0.8,12.5-2.5s6.8-3.8,9.3-6.7s4.5-6.3,5.8-10.1
		c1.4-3.9,2.1-8.1,2.1-12.7v-59.9h7v59.9c0,5.3-0.8,10.3-2.5,14.9c-1.7,4.7-4.1,8.7-7.3,12.1s-7.1,6.2-11.6,8.1
		c-4.5,2-9.7,2.9-15.3,2.9c-5.7,0-10.8-1-15.3-2.9c-4.5-2-8.4-4.7-11.6-8.1s-5.6-7.5-7.3-12.1s-2.5-9.6-2.5-14.9v-59.9h7.1v59.9
		c0,4.5,0.7,8.8,2.1,12.7s3.3,7.3,5.8,10.2c2.5,2.9,5.6,5.1,9.3,6.8C82.4,322.5,86.6,323.3,91.2,323.3z"/>
	<path id="XMLID_69_" class="st1" d="M219.3,231.4l-40,96.9h-6.2l-40-96.9h5.5c0.6,0,1.2,0.1,1.6,0.5c0.4,0.3,0.8,0.8,1,1.4l33,80.4
		c0.3,1,0.8,2.1,1.1,3.2c0.3,1.2,0.7,2.3,1,3.5c0.3-1.2,0.5-2.3,0.9-3.5c0.3-1.2,0.7-2.2,1.1-3.2l32.9-80.4c0.2-0.5,0.5-1,1-1.3
		s1-0.5,1.6-0.5C213.8,231.4,219.3,231.4,219.3,231.4z"/>
</g>
<path class="st2" d="M137.5,70.2L177,119c0.5,0.6,1.2,0.8,1.9,0.5L237.6,97c1-0.4,2.1,0.3,2.3,1.3l9.8,62.1c0.1,0.7,0.7,1.3,1.4,1.4
	l62.1,9.8c1.1,0.2,1.7,1.3,1.3,2.3L292,232.6c-0.3,0.7-0.1,1.5,0.5,1.9l48.8,39.5c0.8,0.7,0.8,2,0,2.7l-48.8,39.5
	c-0.6,0.5-0.8,1.2-0.5,1.9l22.5,58.7c0.4,1-0.3,2.1-1.3,2.3l-62.1,9.8c-0.7,0.1-1.3,0.7-1.4,1.4l-9.8,62.1c-0.2,1.1-1.3,1.7-2.3,1.3
	L179,431.3c-0.7-0.3-1.5-0.1-1.9,0.5l-39.5,48.8c-0.7,0.8-2,0.8-2.7,0l-39.5-48.8c-0.5-0.6-1.2-0.8-1.9-0.5l-58.7,22.5
	c-1,0.4-2.1-0.3-2.3-1.3l-9.8-62.1c-0.1-0.7-0.7-1.3-1.4-1.4l-62.1-9.8c-1.1-0.2-1.7-1.3-1.3-2.3l22.5-58.7c0.3-0.7,0.1-1.5-0.5-1.9
	l-48.8-39.5c-0.8-0.7-0.8-2,0-2.7l48.8-39.5c0.6-0.5,0.8-1.2,0.5-1.9l-22.5-58.7c-0.4-1,0.3-2.1,1.3-2.3l62.1-9.8
	c0.7-0.1,1.3-0.7,1.4-1.4l9.8-62.1c0.2-1.1,1.3-1.7,2.3-1.3l58.7,22.5c0.7,0.3,1.5,0.1,1.9-0.5l39.5-48.8
	C135.5,69.4,136.8,69.4,137.5,70.2z"/>
</svg>
