<?xml version="1.0" encoding="utf-8"?>
<!-- Generator: Adobe Illustrator 19.0.0, SVG Export Plug-In . SVG Version: 6.00 Build 0)  -->
<svg version="1.1" id="Camada_1" xmlns="http://www.w3.org/2000/svg" xmlns:xlink="http://www.w3.org/1999/xlink" x="0px" y="0px"
	 viewBox="-363.9 -50.7 625.5 571.5" style="enable-background:new -363.9 -50.7 625.5 571.5;" xml:space="preserve">
<style type="text/css">
	.st0{fill:none;stroke:#010202;stroke-width:10;stroke-linecap:round;stroke-miterlimit:10;}
	.st1{fill:none;}
	.st2{fill:#010202;}
</style>
<g id="XMLID_1_">
</g>
<g id="XMLID_159_">
</g>
<g id="XMLID_165_">
</g>
<g id="XMLID_166_">
</g>
<g id="XMLID_167_">
</g>
<g id="XMLID_168_">
</g>
<g id="XMLID_169_">
</g>
<g id="XMLID_170_">
</g>
<g id="XMLID_171_">
</g>
<g id="XMLID_172_">
</g>
<g id="XMLID_173_">
</g>
<g id="XMLID_174_">
</g>
<g id="XMLID_175_">
</g>
<g id="XMLID_176_">
</g>
<g id="XMLID_177_">
</g>
<g id="XMLID_72_">
	<path id="XMLID_81_" class="st0" d="M153.9,230.2h77.2"/>
	<path id="XMLID_80_" class="st0" d="M-261.7,241.4h-77.2"/>
	<path id="XMLID_79_" class="st0" d="M94.8,381.1l54.9,53.5"/>
	<path id="XMLID_78_" class="st0" d="M-202.7,90.5L-257.6,37"/>
	<path id="XMLID_77_" class="st0" d="M-53.9,443.6v77.2"/>
	<path id="XMLID_76_" class="st0" d="M-53.9,28v-77.2"/>
	<path id="XMLID_75_" class="st0" d="M90.7,86.3l54.9-53.5"/>
	<path id="XMLID_74_" class="st0" d="M-199.2,384.5l-53.5,54.2"/>
	<path id="XMLID_73_" class="st0" d="M51,136.4c52.8,57.7,51.4,146.7-3.5,200.2c-59.8,59.1-155.7,55.6-209.9-6.3
		c-50.7-59.1-45.2-148.7,11.8-201.6S-1.8,81.5,51,136.4z"/>
</g>
<g id="XMLID_68_">
	<rect id="XMLID_71_" x="-148.5" y="188.5" class="st1" width="234.5" height="144.2"/>
	<path id="XMLID_70_" class="st2" d="M-98.7,283.3c4.7,0,8.8-0.8,12.5-2.5s6.8-3.8,9.3-6.7s4.5-6.3,5.8-10.1
		c1.4-3.9,2.1-8.1,2.1-12.7v-59.9h7v59.9c0,5.3-0.8,10.3-2.5,14.9c-1.7,4.7-4.1,8.7-7.3,12.1c-3.2,3.4-7.1,6.2-11.6,8.1
		c-4.5,2-9.7,2.9-15.3,2.9c-5.7,0-10.8-1-15.3-2.9c-4.5-2-8.4-4.7-11.6-8.1c-3.2-3.4-5.6-7.5-7.3-12.1s-2.5-9.6-2.5-14.9v-59.9h7.1
		v59.9c0,4.5,0.7,8.8,2.1,12.7s3.3,7.3,5.8,10.2c2.5,2.9,5.6,5.1,9.3,6.8C-107.5,282.5-103.3,283.3-98.7,283.3z"/>
	<path id="XMLID_69_" class="st2" d="M29.4,191.4l-40,96.9h-6.2l-40-96.9h5.5c0.6,0,1.2,0.1,1.6,0.5c0.4,0.3,0.8,0.8,1,1.4l33,80.4
		c0.3,1,0.8,2.1,1.1,3.2c0.3,1.2,0.7,2.3,1,3.5c0.3-1.2,0.5-2.3,0.9-3.5c0.3-1.2,0.7-2.2,1.1-3.2l32.9-80.4c0.2-0.5,0.5-1,1-1.3
		s1-0.5,1.6-0.5C23.9,191.4,29.4,191.4,29.4,191.4z"/>
</g>
</svg>
