<?xml version="1.0" encoding="utf-8"?>
<!-- Generator: Adobe Illustrator 19.0.0, SVG Export Plug-In . SVG Version: 6.00 Build 0)  -->
<svg version="1.1" id="Camada_1" xmlns="http://www.w3.org/2000/svg" xmlns:xlink="http://www.w3.org/1999/xlink" x="0px" y="0px"
	 viewBox="0 0 93.6 83.4" style="enable-background:new 0 0 93.6 83.4;" xml:space="preserve">
<style type="text/css">
	.st0{fill:#010202;}
</style>
<g id="XMLID_14_">
	<path id="XMLID_15_" class="st0" d="M86.2,83.4H7.7c-2.8,0-5.3-1.4-6.7-3.8c-1.4-2.4-1.3-5.2,0-7.6L40.3,5c1.4-2.4,3.9-3.8,6.6-3.8
		c2.8,0,5.2,1.4,6.6,3.8l39.3,67c1.4,2.4,1.4,5.2,0,7.6C91.5,81.9,89,83.4,86.2,83.4z M6.1,74.9c-0.4,0.7-0.2,1.4,0,1.7
		c0.2,0.3,0.6,0.9,1.6,0.9h78.6c1,0,1.4-0.6,1.6-0.9c0.2-0.3,0.4-0.9,0-1.7L48.5,8c-0.5-0.8-1.3-0.9-1.6-0.9c-0.3,0-1.1,0.1-1.6,0.9
		L6.1,74.9z"/>
</g>
<path id="XMLID_13_" class="st0" d="M38.9,59.9c-1.6,0-2.9-1.3-2.9-2.9V33.5c0-1.6,1.3-2.9,2.9-2.9s2.9,1.3,2.9,2.9V57
	C41.8,58.6,40.5,59.9,38.9,59.9z"/>
<path id="XMLID_12_" class="st0" d="M38.9,71.6c-0.8,0-1.5-0.3-2.1-0.9c-0.5-0.6-0.9-1.3-0.9-2.1c0-0.8,0.3-1.5,0.9-2.1
	c1.1-1.1,3.1-1.1,4.2,0c0.5,0.6,0.9,1.3,0.9,2.1c0,0.8-0.3,1.5-0.9,2.1C40.4,71.3,39.7,71.6,38.9,71.6z"/>
<path id="XMLID_11_" class="st0" d="M47,59.9c-1.6,0-2.9-1.3-2.9-2.9V33.5c0-1.6,1.3-2.9,2.9-2.9s2.9,1.3,2.9,2.9V57
	C49.9,58.6,48.6,59.9,47,59.9z"/>
<path id="XMLID_10_" class="st0" d="M47,71.6c-0.8,0-1.5-0.3-2.1-0.9c-0.5-0.6-0.9-1.3-0.9-2.1c0-0.8,0.3-1.5,0.9-2.1
	c1.1-1.1,3.1-1.1,4.2,0c0.5,0.6,0.9,1.3,0.9,2.1c0,0.8-0.3,1.5-0.9,2.1C48.5,71.3,47.8,71.6,47,71.6z"/>
<path id="XMLID_9_" class="st0" d="M55,59.8c-1.6,0-2.9-1.3-2.9-2.9V33.4c0-1.6,1.3-2.9,2.9-2.9c1.6,0,2.9,1.3,2.9,2.9v23.5
	C58,58.5,56.6,59.8,55,59.8z"/>
<path id="XMLID_8_" class="st0" d="M55,71.6c-0.8,0-1.5-0.3-2.1-0.9c-0.5-0.6-0.9-1.3-0.9-2.1c0-0.8,0.3-1.5,0.9-2.1
	c1.1-1.1,3.1-1.1,4.2,0c0.5,0.6,0.9,1.3,0.9,2.1c0,0.8-0.3,1.5-0.9,2.1C56.6,71.3,55.8,71.6,55,71.6z"/>
<g id="XMLID_77_">
</g>
<g id="XMLID_78_">
</g>
<g id="XMLID_79_">
</g>
<g id="XMLID_80_">
</g>
<g id="XMLID_81_">
</g>
<g id="XMLID_82_">
</g>
<g id="XMLID_83_">
</g>
<g id="XMLID_84_">
</g>
<g id="XMLID_85_">
</g>
<g id="XMLID_86_">
</g>
<g id="XMLID_87_">
</g>
<g id="XMLID_88_">
</g>
<g id="XMLID_89_">
</g>
<g id="XMLID_90_">
</g>
<g id="XMLID_91_">
</g>
</svg>
