<?xml version="1.0" encoding="utf-8"?>
<!-- Generator: Adobe Illustrator 19.0.0, SVG Export Plug-In . SVG Version: 6.00 Build 0)  -->
<svg version="1.1" id="Camada_1" xmlns="http://www.w3.org/2000/svg" xmlns:xlink="http://www.w3.org/1999/xlink" x="0px" y="0px"
	 viewBox="0 0 122 105.7" style="enable-background:new 0 0 122 105.7;" xml:space="preserve">
<style type="text/css">
	.st0{fill:#010202;}
</style>
<g id="XMLID_2_">
	<path id="XMLID_3_" class="st0" d="M100.3,93.3H21.1c-2.8,0-5.3-1.4-6.7-3.9c-1.4-2.4-1.4-5.2,0-7.6L54,14.3
		c1.4-2.4,3.9-3.8,6.7-3.8c2.8,0,5.3,1.4,6.7,3.8l39.6,67.5c1.4,2.4,1.4,5.2,0,7.6C105.6,91.9,103.1,93.3,100.3,93.3z M19.5,84.8
		c-0.4,0.7-0.2,1.4,0,1.7c0.2,0.3,0.6,0.9,1.6,0.9h79.2c1,0,1.4-0.6,1.6-0.9c0.2-0.3,0.4-0.9,0-1.7L62.2,17.3
		c-0.5-0.8-1.3-0.9-1.6-0.9c-0.3,0-1.1,0.1-1.6,0.9L19.5,84.8z M60.7,66.7c-1.6,0-3-1.3-3-3V40.1c0-1.6,1.3-3,3-3c1.6,0,3,1.3,3,3
		v23.7C63.6,65.4,62.3,66.7,60.7,66.7z M60.7,78.5c-0.8,0-1.5-0.3-2.1-0.9c-0.5-0.6-0.9-1.3-0.9-2.1c0-0.8,0.3-1.5,0.9-2.1
		c1.1-1.1,3.1-1.1,4.2,0c0.5,0.6,0.9,1.3,0.9,2.1c0,0.8-0.3,1.5-0.9,2.1C62.2,78.2,61.5,78.5,60.7,78.5z"/>
</g>
<g id="XMLID_8_">
</g>
<g id="XMLID_9_">
</g>
<g id="XMLID_10_">
</g>
<g id="XMLID_11_">
</g>
<g id="XMLID_12_">
</g>
<g id="XMLID_13_">
</g>
<g id="XMLID_14_">
</g>
<g id="XMLID_15_">
</g>
<g id="XMLID_16_">
</g>
<g id="XMLID_17_">
</g>
<g id="XMLID_18_">
</g>
<g id="XMLID_19_">
</g>
<g id="XMLID_20_">
</g>
<g id="XMLID_21_">
</g>
<g id="XMLID_22_">
</g>
</svg>
