<svg id="Camada_1" data-name="Camada 1" xmlns="http://www.w3.org/2000/svg" viewBox="0 0 379.12 365.9"><defs><style>.cls-1,.cls-2{fill:#fff;}.cls-1{opacity:0.11;}.cls-2{font-size:157.52px;font-family:Ubuntu-Italic, Ubuntu;font-style:italic;}.cls-3{letter-spacing:-0.01em;}</style></defs><path class="cls-1" d="M601.59,569.47a148.67,148.67,0,0,1-1.28,19.32,114.74,114.74,0,0,1-2.55,14,150.83,150.83,0,0,1-10.32,30.81A174.41,174.41,0,0,1,537,697c-31.16,24.39-69.91,37.85-109.39,38.88a183.93,183.93,0,0,1-112.54-34A174.91,174.91,0,0,1,248,607.37a170.13,170.13,0,0,1,9.52-117.45,181.3,181.3,0,0,1,13.37-23.47,174.6,174.6,0,0,1,40.33-42.19A183.42,183.42,0,0,1,364,396.6a192.26,192.26,0,0,1,56.59-9.4,183.08,183.08,0,0,1,62.31,9.88,181,181,0,0,1,85.77,61.24,173.64,173.64,0,0,1,25.9,47.85,177.7,177.7,0,0,1,7,26.75,170.35,170.35,0,0,1,2.3,37.76.68.68,0,0,0,.74.56,2.29,2.29,0,0,0,1.41-1c.94-1,2.64-2.75,2.64-4.24a174.8,174.8,0,0,0-.6-20,168.31,168.31,0,0,0-2.83-19.35,171.27,171.27,0,0,0-11.84-36.41,178.46,178.46,0,0,0-44.77-60.09,188.4,188.4,0,0,0-103.11-45.24c-47.8-5.3-96.88,7.68-135.31,36.68-39,29.45-65.31,74.24-70,123.08A173,173,0,0,0,249,618.11a176.27,176.27,0,0,0,37.76,62.11c32.8,35,78.89,55.77,126.75,58.2,51.83,2.63,103.83-16.07,141.2-52.28a176.67,176.67,0,0,0,34-45.57,165.27,165.27,0,0,0,13.49-35.65c3.14-12.53,4.36-25.17,5-38,.07-1.33-1.55-.59-2.07-.32C604.27,567,601.63,568.28,601.59,569.47Z" transform="translate(-231.82 -374.73)"/><path class="cls-1" d="M598.58,566.1a163.55,163.55,0,0,1-1.36,19.41,115.32,115.32,0,0,1-2.51,14,152.31,152.31,0,0,1-10.17,30.82,174.51,174.51,0,0,1-30.09,45.39c-27.37,29.72-64.75,49.53-104.54,56.2-41.31,6.93-85.46,0-122-20.74a186.81,186.81,0,0,1-43.59-33.8,175.2,175.2,0,0,1-32.82-49.1,129.89,129.89,0,0,1-5.14-12.74,95.2,95.2,0,0,1-5.78-41.16,95.69,95.69,0,0,1-1.73-41.83,166.72,166.72,0,0,1,4-18.33,175.41,175.41,0,0,1,23-49.75c22.26-33.1,55.76-58.07,93.55-70.66a193.59,193.59,0,0,1,56.78-9.57A181.54,181.54,0,0,1,450.63,387a176.74,176.74,0,0,1,32.46,8.54,188.84,188.84,0,0,1,48.8,26.79c44.21,33.94,69.6,85.49,68.59,145,.12.48.4.61.84.38a5.12,5.12,0,0,0,1.56-2.26q1.17-2.32,2.16-4.73a5.32,5.32,0,0,0,.68-2.66A210.69,210.69,0,0,0,602.85,529,177.31,177.31,0,0,0,581.54,472a203.6,203.6,0,0,0-12.4-18.5,167.52,167.52,0,0,0-18.79-21,169.62,169.62,0,0,0-21.84-17.9,226.59,226.59,0,0,0-23.39-14,181.91,181.91,0,0,0-30.92-12.22,193.32,193.32,0,0,0-63.48-7.89,191,191,0,0,0-113.87,43.86,182.67,182.67,0,0,0-39,45.5,176.45,176.45,0,0,0-12.51,25,157.45,157.45,0,0,0-9.52,31.72,197.3,197.3,0,0,0-3.2,29.39,183.27,183.27,0,0,0,3.44,39.1,172.54,172.54,0,0,0,22.62,57,183.52,183.52,0,0,0,44.16,49A192.18,192.18,0,0,0,492,726.42,187.43,187.43,0,0,0,552.15,687a181.21,181.21,0,0,0,37.93-54,177,177,0,0,0,12-36.14c2.69-12.55,3.76-25.37,4.67-38.14.15-2-3,1.15-2.93,1.07-1.27,1.25-2.5,2.56-3.67,3.91A5.44,5.44,0,0,0,598.58,566.1Z" transform="translate(-231.82 -374.73)"/><path class="cls-1" d="M597.3,562a140.8,140.8,0,0,1-1.15,19.14l-1.5,9.37a148.74,148.74,0,0,1-9.41,30.87A166.61,166.61,0,0,1,556.56,667,175.35,175.35,0,0,1,511.15,704a184.36,184.36,0,0,1-51.89,20c-38.06,8.05-78,4.8-113.89-10.58a193.83,193.83,0,0,1-24.74-12.93A183,183,0,0,1,305.52,690l-42.85-47.76a168.58,168.58,0,0,1-21.62-55.1,169.75,169.75,0,0,1,50-156.64A183.83,183.83,0,0,1,336.23,399,191.6,191.6,0,0,1,390.05,382a186.28,186.28,0,0,1,112.76,17.49,181.89,181.89,0,0,1,44.71,31.93,169,169,0,0,1,20.58,24.11,129.59,129.59,0,0,1,7.49,11.32q26.79,46.41,24,96.47a1,1,0,0,0,1.09,1.1c.67-.08,1.11-1,1.12-1.63.15-6.37.29-12.65-.08-19-.28-4.79-.83-9.51-1.51-14.25A170.17,170.17,0,0,0,592.6,498a177.92,177.92,0,0,0-54.47-78,187.39,187.39,0,0,0-119.69-42.76,191.2,191.2,0,0,0-120,42.75,177.11,177.11,0,0,0-40,45.78,183.56,183.56,0,0,0-18.95,43.88,165.27,165.27,0,0,0-6,39.16,171.73,171.73,0,0,0,11.1,66.92,177.63,177.63,0,0,0,62.49,80.65,191.09,191.09,0,0,0,175.18,24,186.09,186.09,0,0,0,59.1-34.85,176.13,176.13,0,0,0,41.39-53,157.11,157.11,0,0,0,12.72-34.33c1.08-4.6,2-9.21,2.69-13.88a76.27,76.27,0,0,0,1.15-9.53,106.5,106.5,0,0,0,.65-14.06c0-.62-.79-1-1.3-.88S597.31,561.4,597.3,562Z" transform="translate(-231.82 -374.73)"/><path class="cls-1" d="M602.64,564.43a172.1,172.1,0,0,1-1.38,19.38,153.83,153.83,0,0,1-3.5,18.67,161.34,161.34,0,0,1-13.09,34.57,174,174,0,0,1-39.09,50.1c-35.69,31.69-83.27,48.08-130.85,46.23s-93.67-22.15-126.6-56.69a175.41,175.41,0,0,1-36.56-57.45,170,170,0,0,1-11.39-68.88,172.51,172.51,0,0,1,15.39-63.46c10-22.15,25.28-42.06,43.44-58.11,35.75-31.58,83.27-48,130.86-46.12s93.61,22.14,126.53,56.64a176,176,0,0,1,34.92,53.12,169.84,169.84,0,0,1,13.09,73.14c0,2.1,2.86-1.93,2.61-1.57,1-1.45,1.86-2.92,2.7-4.44a5.22,5.22,0,0,0,1-2.55,175.72,175.72,0,0,0-17.14-75.46,182.66,182.66,0,0,0-39-53.62c-36-34.25-85.09-52.9-134.69-52.22S322,396.25,287,431.32a181.5,181.5,0,0,0-39.14,58.5,176.29,176.29,0,0,0-13.51,70.59A179.72,179.72,0,0,0,248.29,626c9.51,23,24.5,44,42.56,61,35.49,33.55,83.56,52,132.33,51.86,49-.18,97.09-19.16,132.37-53.24a181.87,181.87,0,0,0,38.28-53.36,175.54,175.54,0,0,0,12.35-36.06c2.81-12.57,3.92-25.34,4.76-38.17.12-1.91-2.82.68-2.91.75q-1.95,1.64-3.76,3.44A5,5,0,0,0,602.64,564.43Z" transform="translate(-231.82 -374.73)"/><path class="cls-1" d="M599.64,562.36A75.37,75.37,0,0,1,599,581.1l-1.51,9.37a153.37,153.37,0,0,1-7.83,26.73A162.67,162.67,0,0,1,582,633.79L479.71,718.54a170.37,170.37,0,0,1-27.4,6.7,186.79,186.79,0,0,1-112.57-16.35,180.07,180.07,0,0,1-78.23-74.35,169.48,169.48,0,0,1-18.66-108.89,165.62,165.62,0,0,1,17.85-52.31,176.5,176.5,0,0,1,33-43.35,172.06,172.06,0,0,1,21.19-17.47l40.47-21.47a185.9,185.9,0,0,1,18-5.78,189.1,189.1,0,0,1,58.11-6c19.45,1.19,39,4.92,57.16,12.08,17.26,6.79,33.81,15.81,48.28,27.48A183,183,0,0,1,571.24,455a170.79,170.79,0,0,1,24.12,48.51,167.36,167.36,0,0,1,6,26.89,127.57,127.57,0,0,1,1.39,13.93,172.21,172.21,0,0,1,0,19c0,.47,1,.84,1.39.73.55-.18.82-1.09.83-1.58.12-4.82.25-9.59.1-14.41a170.14,170.14,0,0,0-7.76-46,174.4,174.4,0,0,0-30.06-56.32c-27.76-34.84-68-58.3-111.73-66.45A192.13,192.13,0,0,0,334.56,396.2a182,182,0,0,0-73.24,67.07,168.19,168.19,0,0,0-25.1,92.31A186,186,0,0,0,240,588.76a164.18,164.18,0,0,0,8.43,27.5A168.23,168.23,0,0,0,260.71,641a173.35,173.35,0,0,0,22.14,29.54,187.13,187.13,0,0,0,109.73,57.65,192.23,192.23,0,0,0,63.18-1.06,188.53,188.53,0,0,0,27.28-7.2,211.56,211.56,0,0,0,25.42-11,183.79,183.79,0,0,0,30.18-19.77,182.64,182.64,0,0,0,25.45-25,171.5,171.5,0,0,0,20.46-30.5,161.59,161.59,0,0,0,12-30,150.13,150.13,0,0,0,4.12-18.38,77.66,77.66,0,0,0,1.21-9.49,49,49,0,0,0,0-13.79C601.85,560.63,599.6,561,599.64,562.36Z" transform="translate(-231.82 -374.73)"/><path class="cls-1" d="M595.48,564.46a201.26,201.26,0,0,1-2,24,146.27,146.27,0,0,1-5.3,22.81,168.54,168.54,0,0,1-17.33,37.13A177.11,177.11,0,0,1,509,707.53,183.21,183.21,0,0,1,470.6,724a140.85,140.85,0,0,1-13.73,3.65L282.25,674.55a178.51,178.51,0,0,1-14.46-17.67c-17-23.56-28.28-51.66-31.22-80.62a176.93,176.93,0,0,1,.73-43A174.45,174.45,0,0,1,248.22,493c10.69-26.6,29-50.2,51.08-68.27a184,184,0,0,1,78.6-37.46A186.82,186.82,0,0,1,401.68,384a93.35,93.35,0,0,1,9.75-.5Q526.06,379,593.21,519.78c1.31,6,2.4,12,3.19,18.12,1.21,9.4,1.19,18.75,1,28.2,0,.9,1,.89,1.51.45.79-.76,1.17-2.93,1.16-4,0-6.35,0-12.62-.61-19-.45-4.64-1.06-9.24-1.84-13.84a172,172,0,0,0-8.24-30.9,179.47,179.47,0,0,0-20.86-39.54c-12-17.4-27.55-32.31-44.76-44.55C472.45,378.24,403,371.41,345,395.06c-41.38,16.85-76.31,48.72-95.56,89.2a174.25,174.25,0,0,0-5.53,135.12c11.79,31.3,32.49,58.35,58.82,78.81a186.06,186.06,0,0,0,50.84,27.51,186.85,186.85,0,0,0,38.78,9.16,190.17,190.17,0,0,0,79.84-7,193.92,193.92,0,0,0,58.3-30.12,176.8,176.8,0,0,0,50-59.6,168.37,168.37,0,0,0,13.27-34.5c1.19-4.57,2.21-9.16,3.06-13.81,1.71-9.4,2.2-19,2.66-28.48.05-.85-.48-1.37-1.31-.88a10.1,10.1,0,0,0-1.48,1.85A9.9,9.9,0,0,0,595.48,564.46Z" transform="translate(-231.82 -374.73)"/><path class="cls-1" d="M599,569.85a160.43,160.43,0,0,1-1.32,19.35l-1.51,9.43a149,149,0,0,1-9.54,31.11c-14.18,33.66-39.91,62-71,80.57A180.23,180.23,0,0,1,459,732.45c-19.27,3.86-39.29,5.21-58.86,3a190.6,190.6,0,0,1-55.49-14.68,179.34,179.34,0,0,1-81.33-71.27,171.49,171.49,0,0,1-12.12-24.3,166.61,166.61,0,0,1-5.87-17.24,93.65,93.65,0,0,1-2.14-46,93.49,93.49,0,0,1,2.43-46.11,123.6,123.6,0,0,1,4.42-13,169.83,169.83,0,0,1,11.72-24.63A173.22,173.22,0,0,1,299.13,433a184.92,184.92,0,0,1,21.67-16.11c29-18.11,63.91-28.85,98.16-28.83a192,192,0,0,1,57.47,8.49,181.24,181.24,0,0,1,89.29,62.09,172.75,172.75,0,0,1,26,47.63,161,161,0,0,1,7.73,31.25,126,126,0,0,1,1.56,14,171.23,171.23,0,0,1,.17,19.09c0,1.38.89,1.22,1.7.38,1.07-1.11,2.48-3.26,2.47-4.83-.05-6.41-.17-12.68-.7-19.07a163.55,163.55,0,0,0-6.42-32.86,174.48,174.48,0,0,0-29.75-57.5,186,186,0,0,0-104-66.14c-34.22-8-71.22-6.45-104.49,5.13a192.52,192.52,0,0,0-25.78,11,183.34,183.34,0,0,0-50.09,37.78,181.37,181.37,0,0,0-30.76,45A174.5,174.5,0,0,0,238,543.21a164.91,164.91,0,0,0-.79,29,171.2,171.2,0,0,0,10.6,50.08c14.61,39,43.35,71.9,79.51,92.48,38.72,22,85,29.26,128.76,21.26,41-7.5,79-28.68,106.4-60.19a173.26,173.26,0,0,0,23.89-35.34,160.26,160.26,0,0,0,13.18-35.71c1.1-4.73,2-9.47,2.72-14.27,1.18-7.88,1.76-15.72,2.21-23.68.08-1.38-1.71-.41-2.12-.16C601.52,567.2,599,568.6,599,569.85Z" transform="translate(-231.82 -374.73)"/><path class="cls-1" d="M603.72,565.05a133.41,133.41,0,0,1-1.19,19.16,152.9,152.9,0,0,1-9.1,35.83,170.16,170.16,0,0,1-53.86,72.27,180.31,180.31,0,0,1-56.67,30.41,198.16,198.16,0,0,1-56.65,9.3,184.89,184.89,0,0,1-122.31-44c-31.35-26.82-52.84-64.23-59.17-105.07a169.77,169.77,0,0,1,1.65-61.25,165.65,165.65,0,0,1,4.87-17.91,97.53,97.53,0,0,1,17.33-32.42,99.39,99.39,0,0,1,20.21-30.58A178,178,0,0,1,301.9,428c32-28.08,73.34-44.07,115.81-45.61C461,380.87,504.23,394.3,538.53,421a178.71,178.71,0,0,1,42.57,47.45,173.31,173.31,0,0,1,12.43,24.4c9.6,23.29,13.07,46.92,12.55,72.68,0,1.23.79,1.27,1.63.54,1-.88,2.42-2.76,2.43-4.15.05-6.44,0-12.74-.39-19.16-.22-3.42-.67-6.88-1.07-10.29a157,157,0,0,0-6.21-28.16,175.61,175.61,0,0,0-12.87-30.65c-19.67-36.88-52.09-66-90.5-82.34a192.44,192.44,0,0,0-124.37-8.65,187,187,0,0,0-98.56,65.08c-18,23.09-30.67,50.91-35.17,80A181.2,181.2,0,0,0,239.44,571a174,174,0,0,0,15.61,58.46c16.22,34.75,43.83,63.6,77.33,82.11a191.78,191.78,0,0,0,117.13,21.94c45.25-5.94,87.8-28.47,117.57-63.13a171.85,171.85,0,0,0,32.38-56.12c1.6-4.66,3-9.35,4.23-14.14s2-9.4,2.75-14.16a213.23,213.23,0,0,0,2-23.7c.06-1.27-1.56-.46-2-.2C605.69,562.65,603.74,563.88,603.72,565.05Z" transform="translate(-231.82 -374.73)"/><path class="cls-1" d="M596.91,562.38a163.87,163.87,0,0,1-1.27,19.3,155.91,155.91,0,0,1-3.49,18.58,160.49,160.49,0,0,1-9.07,26.12,170.75,170.75,0,0,1-36.19,51.74c-43.41,42.68-107,60.77-167,48.51-42.45-8.66-82.23-32.69-108.38-67.44a176.39,176.39,0,0,1-27.39-52.32,168.5,168.5,0,0,1-6.93-31.71,170.94,170.94,0,0,1-1.15-18.92,98.39,98.39,0,0,1,4.65-32.51,97.31,97.31,0,0,1,7.68-31.54,172.56,172.56,0,0,1,7.85-16.62,182.48,182.48,0,0,1,14.9-23,176.66,176.66,0,0,1,47.13-42.87c38-23.88,84.24-33.09,128.51-26.19a183.84,183.84,0,0,1,111.29,62.09,170.19,170.19,0,0,1,31.35,54.47,178.2,178.2,0,0,1,7,26.48A169.35,169.35,0,0,1,598.8,564c0,.93,1,1,1.49.5.83-.75,1.38-3.09,1.38-4.16A171.58,171.58,0,0,0,587.49,488,178.82,178.82,0,0,0,545.84,429,186.1,186.1,0,0,0,483,390.24,191.31,191.31,0,0,0,405.53,379c-50.88,3.07-99.59,26.91-132.48,66a174.75,174.75,0,0,0-41.22,110.73,172.64,172.64,0,0,0,14.5,71,179,179,0,0,0,44.51,61.1c39.53,35.36,93.52,52,146.14,46.21a189.56,189.56,0,0,0,102.95-44.56,179.14,179.14,0,0,0,44.32-57.65,168.16,168.16,0,0,0,12.26-34.85c2.89-12.49,3.91-25.06,4.52-37.82.05-.88-.43-1.43-1.3-.88a11.23,11.23,0,0,0-1.59,2A11.49,11.49,0,0,0,596.91,562.38Z" transform="translate(-231.82 -374.73)"/><path class="cls-1" d="M600.5,561.85a169.57,169.57,0,0,1-1.34,19.37,142.45,142.45,0,0,1-10.64,39.91,164.09,164.09,0,0,1-12.47,24.37,172.36,172.36,0,0,1-39,44,188.15,188.15,0,0,1-47.74,27.74,183.6,183.6,0,0,1-17.86,6l-97.63,1.13a171.11,171.11,0,0,1-27.05-9.22,181.57,181.57,0,0,1-87.17-78.77,171,171,0,0,1-18-113.07c7.09-37.8,27.26-72.29,56.06-97.69a188.08,188.08,0,0,1,170-40.11,195.69,195.69,0,0,1,27.05,9.27,183.24,183.24,0,0,1,71.77,55.55,178.25,178.25,0,0,1,26.19,47.76,169.11,169.11,0,0,1,9.46,45.27,173.68,173.68,0,0,1,.25,19.09c0,1,.62,1.43,1.42.66a21.63,21.63,0,0,0,2.52-5.43c-.06-4.87-.12-9.69-.45-14.55a172.3,172.3,0,0,0-2.33-19A174.13,174.13,0,0,0,596.34,497a178.46,178.46,0,0,0-29.53-52.73,187.14,187.14,0,0,0-49.76-42.95c-38.74-23-85.22-31.34-129.61-24-43.26,7.13-83.62,29.25-112.31,62.53a178.78,178.78,0,0,0-31.71,53.26,175,175,0,0,0,2.41,129.59,180.51,180.51,0,0,0,36.56,55.07c30.27,31.26,71.27,51,114.41,56a195.47,195.47,0,0,0,101.29-15.41,185.11,185.11,0,0,0,74.35-60.19,170,170,0,0,0,23.83-45.47c2-5.85,3.64-11.71,5.07-17.71,3-12.6,3.94-25.49,4.7-38.37.1-1.69-2.3.58-2.31.59a30.85,30.85,0,0,0-2.37,2.87A2.83,2.83,0,0,0,600.5,561.85Z" transform="translate(-231.82 -374.73)"/><path class="cls-1" d="M603.54,567.29a166.29,166.29,0,0,1-1.34,19.31,153.55,153.55,0,0,1-3.58,18.66,170.13,170.13,0,0,1-9.28,26.22c-11,25-29.12,46.45-50.29,63.41-16.91,13.55-36.48,23.51-57,30.34-21.46,7.15-44.25,9.72-66.8,8.87S370.53,727.77,349.8,719a182.8,182.8,0,0,1-53.42-35.46,172,172,0,0,1-53.57-117.43,168.32,168.32,0,0,1,10.07-64.58,172.16,172.16,0,0,1,32.32-54.36,181,181,0,0,1,49.68-39.74,188,188,0,0,1,112.35-21.17,183.91,183.91,0,0,1,114.23,59.17,173.77,173.77,0,0,1,33.21,54.13,166.65,166.65,0,0,1,10.88,49.75,170.09,170.09,0,0,1,.12,19.16.69.69,0,0,0,.74.57,2.3,2.3,0,0,0,1.41-1.06c.94-1,2.65-2.74,2.66-4.23a174.64,174.64,0,0,0-.51-19.94,171.62,171.62,0,0,0-2.72-19.41,173.65,173.65,0,0,0-11.65-36.64,179.85,179.85,0,0,0-44.84-61,186.68,186.68,0,0,0-66.86-38.05,192.3,192.3,0,0,0-80-7.85,189.85,189.85,0,0,0-103.25,45.3,181.1,181.1,0,0,0-44.26,58.09,173.79,173.79,0,0,0-5.56,136.32,178.29,178.29,0,0,0,39.19,60.85C326,718,376.44,738.1,427.64,737.29s101.28-22.52,136-60.4a176.66,176.66,0,0,0,27-38.81A166.27,166.27,0,0,0,604,602.56c3.12-12.55,4.26-25.23,5.11-38.09.09-1.36-1.65-.49-2.1-.24C606.14,564.73,603.58,566.07,603.54,567.29Z" transform="translate(-231.82 -374.73)"/><path class="cls-1" d="M596.06,566.79a95.79,95.79,0,0,1-3.83,28.06,93.63,93.63,0,0,1-6.49,27,164.26,164.26,0,0,1-11.9,24.67A180.93,180.93,0,0,1,561,665.18c-16.09,20.47-37.15,37.25-60.25,49.14-31.52,16.21-67.66,22-102.78,18.86A176.68,176.68,0,0,1,369.09,728c-20-5.28-41.64-15-59-27.56a191.79,191.79,0,0,1-33.75-31.09,171.26,171.26,0,0,1-39.77-96.25,168.16,168.16,0,0,1,22.2-98.4,178.93,178.93,0,0,1,71.46-68,202.36,202.36,0,0,1,21.08-9.5c59.69-23.18,139-9.17,186.65,32.78a182.9,182.9,0,0,1,32.55,37.3,170.75,170.75,0,0,1,20.86,45,159.57,159.57,0,0,1,5.59,27l.88,9.31a174.92,174.92,0,0,1,.19,19c0,1,.86,1.21,1.48.52a12.78,12.78,0,0,0,1.11-2.51,13.49,13.49,0,0,0,.72-2.65c-.11-6.42-.14-12.77-.84-19.18-.51-4.68-1.18-9.31-2-13.94a172.26,172.26,0,0,0-8.69-31,177.31,177.31,0,0,0-36-57,186.12,186.12,0,0,0-89.64-52.8,192.22,192.22,0,0,0-68.37-4.68,187.67,187.67,0,0,0-98.1,41.29,178.8,178.8,0,0,0-41.26,48.54,170.44,170.44,0,0,0-21.88,66.11A174.42,174.42,0,0,0,240,606.74a177.06,177.06,0,0,0,32,62.11A185.94,185.94,0,0,0,361.68,730a193.23,193.23,0,0,0,60.81,8.44,177.83,177.83,0,0,0,20.34-1.57,174.2,174.2,0,0,0,19.67-3.66,186.78,186.78,0,0,0,36.79-13.11c31-15.19,58.44-38.72,76.26-68.49a179.76,179.76,0,0,0,17.27-37.86,165.49,165.49,0,0,0,4.71-18.34c2.2-11.14,3.09-22.37,3.74-33.68.09-1.64-2.22.53-2.24.55C598,563.38,596.12,565.2,596.06,566.79Z" transform="translate(-231.82 -374.73)"/><text class="cls-2" transform="translate(17.93 222.99)">au<tspan class="cls-3" x="172.33" y="0">r</tspan><tspan x="229.82" y="0">a</tspan></text></svg>