<?xml version="1.0" encoding="utf-8"?>
<!-- Generator: Adobe Illustrator 19.0.0, SVG Export Plug-In . SVG Version: 6.00 Build 0)  -->
<svg version="1.1" id="Camada_1" xmlns="http://www.w3.org/2000/svg" xmlns:xlink="http://www.w3.org/1999/xlink" x="0px" y="0px"
	 viewBox="0 0 122 105.7" style="enable-background:new 0 0 122 105.7;" xml:space="preserve">
<style type="text/css">
	.st0{fill:none;stroke:#010202;stroke-width:2;stroke-miterlimit:10;}
	.st1{fill:none;stroke:#010202;stroke-width:2;stroke-linecap:round;stroke-miterlimit:10;}
</style>
<path id="XMLID_344_" class="st0" d="M39.3,48.4C34,46.1,30,41.5,29.1,35.7c-1-5.7,1.4-11.3,5.8-15.2c3-2.7,6.1-3.8,9.2-4
	c0.1,0,0.1-0.1,0-0.2c-4-2.2-9-3.2-13.8-2.4c-11.2,1.7-20,11.9-17.9,24.5l0,0C14.4,51.8,25.9,58,37,56.1c4.8-0.8,9.1-3.3,12.2-6.6
	c0.1-0.1,0.1-0.2,0-0.1C46.3,50,43.1,50,39.3,48.4z"/>
<path id="XMLID_343_" class="st1" d="M34,77.5c0,0-0.4-6.5,4.8-9.8c5.5-3.5,11.5,0.1,11.5,0.1s2.3-14.7,14.6-14.7
	c5.7,0,10.6,3.7,13.1,9.1c1.4-0.7,2.9-1.1,4.5-1.1c5.6,0,10.3,4.5,11.5,10.6c2-0.8,4.4-0.9,7.1,1.8c1.5,1.5,2.6,3.6,2.6,5.9
	c0.1,3.2-1.4,5.2-3.6,6.7c-0.9,0.7-1.9,0.5-3.1,0.5l-66.5,0c-2.2,0-3.8-1.9-3.8-4.5C26.7,77.9,31.2,77.5,34,77.5z"/>
<g id="XMLID_159_">
</g>
<g id="XMLID_160_">
</g>
<g id="XMLID_263_">
</g>
<g id="XMLID_264_">
</g>
<g id="XMLID_265_">
</g>
<g id="XMLID_266_">
</g>
<g id="XMLID_267_">
</g>
<g id="XMLID_268_">
</g>
<g id="XMLID_269_">
</g>
<g id="XMLID_270_">
</g>
<g id="XMLID_271_">
</g>
<g id="XMLID_272_">
</g>
<g id="XMLID_273_">
</g>
<g id="XMLID_274_">
</g>
<g id="XMLID_275_">
</g>
</svg>
