<?xml version="1.0" encoding="utf-8"?>
<!-- Generator: Adobe Illustrator 19.0.0, SVG Export Plug-In . SVG Version: 6.00 Build 0)  -->
<svg version="1.1" id="Camada_1" xmlns="http://www.w3.org/2000/svg" xmlns:xlink="http://www.w3.org/1999/xlink" x="0px" y="0px"
	 viewBox="-418 228.3 122 105.7" style="enable-background:new -418 228.3 122 105.7;" xml:space="preserve">
<style type="text/css">
	.st0{fill:#A3A29F;stroke:#848484;stroke-miterlimit:10;}
	.st1{fill:#C6C6C4;stroke:#B5B5B5;stroke-width:6;stroke-linecap:round;stroke-miterlimit:10;}
</style>
<g id="XMLID_159_">
</g>
<g id="XMLID_160_">
</g>
<g id="XMLID_263_">
</g>
<g id="XMLID_264_">
</g>
<g id="XMLID_265_">
</g>
<g id="XMLID_266_">
</g>
<g id="XMLID_267_">
</g>
<g id="XMLID_268_">
</g>
<g id="XMLID_269_">
</g>
<g id="XMLID_270_">
</g>
<g id="XMLID_271_">
</g>
<g id="XMLID_272_">
</g>
<g id="XMLID_273_">
</g>
<g id="XMLID_274_">
</g>
<g id="XMLID_275_">
</g>
<path id="XMLID_2_" class="st0" d="M-382.4,275.2c-5.9-2.6-10.5-7.8-11.5-14.2c-1.1-6.4,1.6-12.7,6.5-17.1c3.4-3.1,6.9-4.2,10.3-4.5
	c0.1,0,0.1-0.1,0.1-0.2c-4.5-2.5-10.1-3.6-15.5-2.7c-12.6,1.9-22.5,13.4-20.2,27.5l0,0c2.4,15,15.2,21.9,27.8,19.8
	c5.4-0.9,10.3-3.7,13.7-7.5c0.1-0.1,0.1-0.2,0-0.2C-374.6,277-378.2,277-382.4,275.2z"/>
<g id="XMLID_14_">
	<path id="XMLID_89_" class="st1" d="M-311.5,311c0,0,0.6-8.3-7-12.6c-8.1-4.5-16.8,0.1-16.8,0.1s-3.3-18.8-21.2-18.8
		c-8.3,0-15.5,4.7-19.1,11.6c-2-0.9-4.3-1.3-6.6-1.3c-8.2,0-15.1,5.8-16.7,13.5c-3-1-6.4-1.2-10.4,2.2c-2.2,1.9-3.8,4.7-3.8,7.6
		c-0.1,4.1,2.1,6.7,5.3,8.5c1.3,0.9,2.8,0.7,4.5,0.7h97c3.3,0,5.5-2.5,5.5-5.7C-300.9,311.5-307.4,311-311.5,311z"/>
</g>
<g id="XMLID_81_">
</g>
</svg>
