<?xml version="1.0" encoding="utf-8"?>
<!-- Generator: Adobe Illustrator 19.0.0, SVG Export Plug-In . SVG Version: 6.00 Build 0)  -->
<svg version="1.1" id="Camada_1" xmlns="http://www.w3.org/2000/svg" xmlns:xlink="http://www.w3.org/1999/xlink" x="0px" y="0px"
	 viewBox="-418 228.3 122 105.7" style="enable-background:new -418 228.3 122 105.7;" xml:space="preserve">
<style type="text/css">
	.st0{fill:#A3A29F;stroke:#848484;stroke-miterlimit:10;}
	.st1{fill:#6B6B6B;stroke:#6B6B6B;stroke-width:6;stroke-linecap:round;stroke-miterlimit:10;}
	.st2{fill:none;stroke:#6666AD;stroke-width:4;stroke-linecap:round;stroke-miterlimit:10;}
</style>
<g id="XMLID_159_">
</g>
<g id="XMLID_160_">
</g>
<g id="XMLID_263_">
</g>
<g id="XMLID_264_">
</g>
<g id="XMLID_265_">
</g>
<g id="XMLID_266_">
</g>
<g id="XMLID_267_">
</g>
<g id="XMLID_268_">
</g>
<g id="XMLID_269_">
</g>
<g id="XMLID_270_">
</g>
<g id="XMLID_271_">
</g>
<g id="XMLID_272_">
</g>
<g id="XMLID_273_">
</g>
<g id="XMLID_274_">
</g>
<g id="XMLID_275_">
</g>
<path id="XMLID_2_" class="st0" d="M-386.6,260.6c-4.5-2-7.9-5.8-8.6-10.6c-0.9-4.8,1.2-9.6,4.9-12.9c2.6-2.3,5.2-3.2,7.8-3.4
	c0.1,0,0.1-0.1,0-0.1c-3.4-1.9-7.6-2.7-11.7-2c-9.5,1.4-16.9,10.1-15.2,20.7l0,0c1.8,11.2,11.5,16.5,20.9,14.9
	c4.1-0.7,7.7-2.8,10.3-5.6v-0.1C-380.7,262-383.4,261.9-386.6,260.6z"/>
<g id="XMLID_1_">
</g>
<g id="XMLID_81_">
</g>
<g id="XMLID_12_">
	<path id="XMLID_21_" class="st1" d="M-308.4,287.2c0,0,0.5-7.3-6.2-11.1c-7.1-4-14.9,0.1-14.9,0.1s-3-16.6-18.7-16.6
		c-7.3,0-13.7,4.2-16.8,10.3c-1.8-0.8-3.7-1.2-5.8-1.2c-7.2,0-13.3,5.1-14.8,11.9c-2.6-0.9-5.7-1-9.1,2c-2,1.7-3.3,4.1-3.3,6.7
		c-0.1,3.6,1.8,5.9,4.6,7.6c1.1,0.9,2.4,0.6,3.9,0.6h85.6c2.9,0,4.9-2.2,4.9-5.1C-299,287.7-304.8,287.2-308.4,287.2z"/>
	<path id="XMLID_20_" class="st2" d="M-381.1,304.5l-7.9,9.9"/>
	<path id="XMLID_19_" class="st2" d="M-379.7,321.8l-6.6,8.3"/>
	<path id="XMLID_18_" class="st2" d="M-357.4,304.9l-7.9,9.9"/>
	<path id="XMLID_17_" class="st2" d="M-313.2,304.9l-7.9,9.9"/>
	<path id="XMLID_16_" class="st2" d="M-334.6,304.5l-7.9,9.9"/>
	<path id="XMLID_15_" class="st2" d="M-358.1,322.7l-6.6,8.3"/>
	<path id="XMLID_13_" class="st2" d="M-335.3,322.7l-6.6,8.3"/>
</g>
</svg>
