<?xml version="1.0" encoding="utf-8"?>
<!-- Generator: Adobe Illustrator 19.0.0, SVG Export Plug-In . SVG Version: 6.00 Build 0)  -->
<svg version="1.1" id="Camada_1" xmlns="http://www.w3.org/2000/svg" xmlns:xlink="http://www.w3.org/1999/xlink" x="0px" y="0px"
	 viewBox="-418 228.3 122 105.7" style="enable-background:new -418 228.3 122 105.7;" xml:space="preserve">
<style type="text/css">
	.st0{fill:#EACF0F;stroke:#EACF0F;stroke-width:4;stroke-linecap:round;stroke-miterlimit:10;}
	.st1{fill:#EACF0F;stroke:#EACF0F;stroke-width:3;stroke-linecap:round;stroke-miterlimit:10;}
	.st2{fill:#727272;stroke:#727272;stroke-width:6;stroke-linecap:round;stroke-miterlimit:10;}
	.st3{fill:none;stroke:#6666AD;stroke-width:4;stroke-linecap:round;stroke-miterlimit:10;}
</style>
<g id="XMLID_1_">
	<path id="XMLID_10_" class="st0" d="M-314.7,266.4h9.9"/>
	<path id="XMLID_9_" class="st0" d="M-368.1,267.9h-9.9"/>
	<path id="XMLID_8_" class="st0" d="M-322.3,285.7l7.1,6.9"/>
	<path id="XMLID_7_" class="st0" d="M-360.5,248.5l-7.1-6.9"/>
	<path id="XMLID_6_" class="st1" d="M-341.4,293.7v9.9"/>
	<path id="XMLID_5_" class="st0" d="M-341.4,240.5v-9.9"/>
	<path id="XMLID_4_" class="st0" d="M-322.8,248l7.1-6.9"/>
	<path id="XMLID_3_" class="st1" d="M-360.1,286.2l-6.9,7"/>
	<path id="XMLID_2_" class="st1" d="M-327.9,254.4c6.8,7.4,6.6,18.8-0.4,25.7c-7.7,7.6-20,7.1-27-0.8c-6.5-7.6-5.8-19.1,1.5-25.9
		C-346.5,246.6-334.7,247.3-327.9,254.4z"/>
</g>
<g id="XMLID_81_">
</g>
<g id="XMLID_159_">
</g>
<g id="XMLID_160_">
</g>
<g id="XMLID_263_">
</g>
<g id="XMLID_264_">
</g>
<g id="XMLID_265_">
</g>
<g id="XMLID_266_">
</g>
<g id="XMLID_267_">
</g>
<g id="XMLID_268_">
</g>
<g id="XMLID_269_">
</g>
<g id="XMLID_270_">
</g>
<g id="XMLID_271_">
</g>
<g id="XMLID_272_">
</g>
<g id="XMLID_273_">
</g>
<g id="XMLID_274_">
</g>
<g id="XMLID_275_">
</g>
<g id="XMLID_286_">
</g>
<g id="XMLID_12_">
	<path id="XMLID_21_" class="st2" d="M-332.7,294.4c0,0,0.4-6.2-5.3-9.4c-6.1-3.4-12.7,0.1-12.7,0.1s-2.5-14.1-16-14.1
		c-6.2,0-11.7,3.6-14.3,8.8c-1.6-0.7-3.2-1-5-1c-6.2,0-11.4,4.4-12.6,10.2c-2.2-0.7-4.8-0.9-7.8,1.7c-1.7,1.4-2.8,3.5-2.8,5.7
		c-0.1,3,1.6,5.1,3.9,6.5c1,0.7,2.1,0.5,3.3,0.5h73.1c2.5,0,4.2-1.9,4.2-4.3C-324.7,294.7-329.6,294.4-332.7,294.4z"/>
	<path id="XMLID_20_" class="st3" d="M-394.7,309.1l-6.8,8.5"/>
	<path id="XMLID_19_" class="st3" d="M-393.5,323.9l-5.6,7.1"/>
	<path id="XMLID_18_" class="st3" d="M-374.5,309.5l-6.8,8.5"/>
	<path id="XMLID_17_" class="st3" d="M-336.8,309.5l-6.8,8.5"/>
	<path id="XMLID_16_" class="st3" d="M-355,309.1l-6.8,8.5"/>
	<path id="XMLID_15_" class="st3" d="M-375.1,324.6l-5.6,7.1"/>
	<path id="XMLID_13_" class="st3" d="M-355.6,324.6l-5.6,7.1"/>
</g>
<g id="XMLID_11_">
</g>
</svg>
