<?xml version="1.0" encoding="utf-8"?>
<!-- Generator: Adobe Illustrator 19.0.0, SVG Export Plug-In . SVG Version: 6.00 Build 0)  -->
<svg version="1.1" id="Camada_1" xmlns="http://www.w3.org/2000/svg" xmlns:xlink="http://www.w3.org/1999/xlink" x="0px" y="0px"
	 viewBox="-418 228.3 122 105.7" style="enable-background:new -418 228.3 122 105.7;" xml:space="preserve">
<style type="text/css">
	.st0{fill:#EACF0F;stroke:#EACF0F;stroke-width:3;stroke-linecap:round;stroke-miterlimit:10;}
	.st1{fill:#C6C6C4;stroke:#B5B5B5;stroke-width:6;stroke-linecap:round;stroke-miterlimit:10;}
</style>
<g id="XMLID_2_">
</g>
<g id="XMLID_3_">
</g>
<g id="XMLID_4_">
</g>
<g id="XMLID_5_">
</g>
<g id="XMLID_6_">
</g>
<g id="XMLID_7_">
</g>
<g id="XMLID_8_">
</g>
<g id="XMLID_9_">
</g>
<g id="XMLID_10_">
</g>
<g id="XMLID_11_">
</g>
<g id="XMLID_12_">
</g>
<g id="XMLID_13_">
</g>
<g id="XMLID_14_">
</g>
<g id="XMLID_15_">
</g>
<g id="XMLID_16_">
</g>
<g id="XMLID_17_">
	<path id="XMLID_26_" class="st0" d="M-309.7,272.7h9.9"/>
	<path id="XMLID_25_" class="st0" d="M-363.1,274.1h-9.9"/>
	<path id="XMLID_24_" class="st0" d="M-317.3,292l7.1,6.9"/>
	<path id="XMLID_23_" class="st0" d="M-355.5,254.8l-7.1-6.9"/>
	<path id="XMLID_22_" class="st0" d="M-336.4,300v9.9"/>
	<path id="XMLID_21_" class="st0" d="M-336.4,246.7v-9.9"/>
	<path id="XMLID_20_" class="st0" d="M-317.8,254.2l7.1-6.9"/>
	<path id="XMLID_19_" class="st0" d="M-355.1,292.4l-6.9,7"/>
	<path id="XMLID_18_" class="st0" d="M-322.9,260.7c6.8,7.4,6.6,18.8-0.4,25.7c-7.7,7.6-20,7.1-27-0.8c-6.5-7.6-5.8-19.1,1.5-25.9
		C-341.5,252.9-329.7,253.6-322.9,260.7z"/>
</g>
<g id="XMLID_1_">
	<path id="XMLID_89_" class="st1" d="M-311.5,310.2c0,0,0.6-8.3-7-12.6c-8.1-4.5-16.8,0.1-16.8,0.1s-3.3-18.8-21.2-18.8
		c-8.3,0-15.5,4.7-19.1,11.6c-2-0.9-4.3-1.3-6.6-1.3c-8.2,0-15.1,5.8-16.7,13.5c-3-1-6.4-1.2-10.4,2.2c-2.2,1.9-3.8,4.7-3.8,7.6
		c-0.1,4.1,2.1,6.7,5.3,8.5c1.3,0.9,2.8,0.7,4.5,0.7h97c3.3,0,5.5-2.5,5.5-5.7C-300.9,310.7-307.4,310.2-311.5,310.2z"/>
</g>
</svg>
