<?xml version="1.0" encoding="utf-8"?>
<!-- Generator: Adobe Illustrator 19.0.0, SVG Export Plug-In . SVG Version: 6.00 Build 0)  -->
<svg version="1.1" id="Camada_1" xmlns="http://www.w3.org/2000/svg" xmlns:xlink="http://www.w3.org/1999/xlink" x="0px" y="0px"
	 viewBox="-414 222 131 118" style="enable-background:new -414 222 131 118;" xml:space="preserve">
<style type="text/css">
	.st0{fill:#727272;stroke:#727272;stroke-width:6;stroke-linecap:round;stroke-miterlimit:10;}
	.st1{fill:none;stroke:#5755AA;stroke-width:5;stroke-linecap:round;stroke-miterlimit:10;}
</style>
<g id="XMLID_67_">
</g>
<g id="XMLID_68_">
</g>
<g id="XMLID_69_">
</g>
<g id="XMLID_70_">
</g>
<g id="XMLID_71_">
</g>
<g id="XMLID_72_">
</g>
<g id="XMLID_73_">
</g>
<g id="XMLID_74_">
</g>
<g id="XMLID_75_">
</g>
<g id="XMLID_76_">
</g>
<g id="XMLID_77_">
</g>
<g id="XMLID_78_">
</g>
<g id="XMLID_79_">
</g>
<g id="XMLID_80_">
</g>
<g id="XMLID_14_">
	<path id="XMLID_89_" class="st0" d="M-299.5,271.7c0,0,0.6-8.4-7.1-12.7c-8.2-4.6-17.1,0.1-17.1,0.1s-3.4-19-21.5-19
		c-8.4,0-15.7,4.8-19.3,11.8c-2.1-0.9-4.3-1.4-6.7-1.4c-8.3,0-15.3,5.9-17,13.7c-3-1-6.5-1.2-10.5,2.3c-2.3,1.9-3.8,4.7-3.8,7.7
		c-0.1,4.1,2.1,6.8,5.3,8.7c1.3,1,2.8,0.7,4.5,0.7h98.3c3.3,0,5.6-2.5,5.6-5.8C-288.7,272.2-295.3,271.7-299.5,271.7z"/>
	<path id="XMLID_97_" class="st1" d="M-382.9,291.5l-9.1,11.4"/>
	<path id="XMLID_98_" class="st1" d="M-381.3,311.4l-7.6,9.5"/>
	<path id="XMLID_99_" class="st1" d="M-355.7,292l-9.1,11.4"/>
	<path id="XMLID_107_" class="st1" d="M-305,292l-9.1,11.4"/>
	<path id="XMLID_100_" class="st1" d="M-329.5,291.5l-9.1,11.4"/>
	<path id="XMLID_101_" class="st1" d="M-356.5,312.4l-7.6,9.5"/>
	<path id="XMLID_102_" class="st1" d="M-330.3,312.4l-7.6,9.5"/>
</g>
<g id="XMLID_81_">
</g>
</svg>
