<?xml version="1.0" encoding="utf-8"?>
<!-- Generator: Adobe Illustrator 19.0.0, SVG Export Plug-In . SVG Version: 6.00 Build 0)  -->
<svg version="1.1" id="Camada_1" xmlns="http://www.w3.org/2000/svg" xmlns:xlink="http://www.w3.org/1999/xlink" x="0px" y="0px"
	 viewBox="-410 41 137.7 480" style="enable-background:new -410 41 137.7 480;" xml:space="preserve">
<style type="text/css">
	.st0{fill:#010202;}
	.st1{fill:#E51F1F;}
</style>
<path id="XMLID_171_" class="st0" d="M-300.1,398.1V82c0-22.7-18.4-41-41-41s-41,18.4-41,41v316.1c-30.5,22.7-36.9,65.8-14.3,96.3
	s65.8,36.9,96.3,14.3c30.5-22.7,36.9-65.8,14.3-96.3C-289.9,406.9-294.7,402.1-300.1,398.1z M-340.8,508
	c-30.3,0-54.9-24.5-54.9-54.8c0-18.3,9.1-35.3,24.2-45.5l0.4-0.4c2-1.2,3.1-3.4,3.2-5.7V82c0.8-14.9,13.6-26.4,28.5-25.6
	c13.8,0.8,24.9,11.8,25.6,25.6v319.6c0,0.2,0,0.4,0,0.7c0.1,0.9,0.4,1.8,0.8,2.6l0.7,1c0.3,0.4,0.7,0.8,1.1,1.1l0.4,0.4
	c25.3,16.7,32.3,50.7,15.7,76C-305.2,498.7-322.4,508-340.8,508z"/>
<circle id="XMLID_170_" class="st1" cx="-340.3" cy="456.8" r="24.3"/>
<path id="XMLID_1_" class="st1" d="M-342.4,73h4.2c2.1,0,3.8,1.7,3.8,3.8V453c0,2.1-1.7,3.8-3.8,3.8h-4.2c-2.1,0-3.8-1.7-3.8-3.8
	V76.8C-346.2,74.7-344.5,73-342.4,73z"/>
<g id="XMLID_28_">
</g>
<g id="XMLID_29_">
</g>
<g id="XMLID_30_">
</g>
<g id="XMLID_31_">
</g>
<g id="XMLID_32_">
</g>
<g id="XMLID_33_">
</g>
<g id="XMLID_34_">
</g>
<g id="XMLID_35_">
</g>
<g id="XMLID_36_">
</g>
<g id="XMLID_37_">
</g>
<g id="XMLID_38_">
</g>
<g id="XMLID_39_">
</g>
<g id="XMLID_40_">
</g>
<g id="XMLID_41_">
</g>
<g id="XMLID_42_">
</g>
</svg>
