<?xml version="1.0" encoding="utf-8"?>
<!-- Generator: Adobe Illustrator 19.0.0, SVG Export Plug-In . SVG Version: 6.00 Build 0)  -->
<svg version="1.1" id="Camada_1" xmlns="http://www.w3.org/2000/svg" xmlns:xlink="http://www.w3.org/1999/xlink" x="0px" y="0px"
	 viewBox="0 0 260 260" style="enable-background:new 0 0 260 260;" xml:space="preserve">
<style type="text/css">
	.st0{fill:none;stroke:#000000;stroke-width:6;stroke-linecap:round;stroke-miterlimit:10;}
</style>
<g id="XMLID_14_">
	<path id="XMLID_89_" class="st0" d="M235.4,105.5c0,0,1.3-19.2-16.3-29.1c-18.7-10.5-39,0.3-39,0.3s-7.7-43.5-49.2-43.5
		c-19.3,0-36,10.9-44.2,26.9c-4.7-2-9.9-3.1-15.3-3.1c-19,0-34.9,13.4-38.8,31.3c-6.9-2.4-14.8-2.7-24.1,5.2
		c-5.2,4.4-8.7,10.8-8.8,17.6c-0.2,9.4,4.8,15.5,12.2,19.8c2.9,2.2,6.5,1.6,10.4,1.6l224.9,0c7.6,0,12.8-5.8,12.8-13.3
		C260,106.7,244.9,105.5,235.4,105.5z"/>
	<path id="XMLID_97_" class="st0" d="M44.5,146.3l-20.8,26.1"/>
	<path id="XMLID_98_" class="st0" d="M48.2,191.8l-17.4,21.8"/>
	<path id="XMLID_99_" class="st0" d="M106.7,147.3l-20.8,26.1"/>
	<path id="XMLID_107_" class="st0" d="M222.7,147.3l-20.8,26.1"/>
	<path id="XMLID_100_" class="st0" d="M166.6,146.3l-20.8,26.1"/>
	<path id="XMLID_101_" class="st0" d="M105,194l-17.4,21.8"/>
	<path id="XMLID_102_" class="st0" d="M164.9,194l-17.4,21.8"/>
</g>
<g id="XMLID_67_">
</g>
<g id="XMLID_68_">
</g>
<g id="XMLID_69_">
</g>
<g id="XMLID_70_">
</g>
<g id="XMLID_71_">
</g>
<g id="XMLID_72_">
</g>
<g id="XMLID_73_">
</g>
<g id="XMLID_74_">
</g>
<g id="XMLID_75_">
</g>
<g id="XMLID_76_">
</g>
<g id="XMLID_77_">
</g>
<g id="XMLID_78_">
</g>
<g id="XMLID_79_">
</g>
<g id="XMLID_80_">
</g>
<g id="XMLID_81_">
</g>
</svg>
